# Blender v2.73 (sub 0) OBJ File: 'audi_with_tracking(reduced).blend'
# www.blender.org
mtllib hood_window.mtl
o hood
v 0.769266 0.953772 0.770763
v 0.478160 0.747441 2.020630
v 0.871305 0.834810 0.730543
v 0.853096 0.805391 1.330312
v 0.853070 0.803910 1.335940
v 0.837242 0.769624 1.502568
v 0.747331 0.941186 0.733534
v 0.755480 0.940890 0.706360
v 0.875609 0.834227 0.731268
v 0.857715 0.818486 1.206168
v 0.871481 0.834620 0.731006
v 0.861840 0.815430 1.117690
v 0.861596 0.814833 1.128395
v 0.824438 0.764813 1.542836
v 0.824370 0.764830 1.543020
v -0.873202 0.901444 1.131273
v -0.867056 0.826855 0.897187
v -0.861539 0.814555 1.128594
v -0.863450 0.819210 1.047600
v -0.866730 0.826190 0.910650
v -0.533637 0.702740 1.924902
v -0.537993 0.704259 1.920779
v -0.763731 0.940563 0.678855
v -0.763874 0.940562 0.678538
v -0.392467 0.671223 1.994889
v -0.402500 0.689375 1.983281
v -0.604197 0.731260 1.880270
v -0.393217 0.672481 1.997183
v -0.775938 0.940089 0.679084
v -0.872977 0.835305 0.729976
v -0.871479 0.834684 0.730815
v -0.871323 0.834863 0.730698
v -0.394280 0.671930 1.993830
v -0.861602 0.814864 1.128082
v -0.861600 0.814880 1.128070
vt 0.000000 1.000000
vn 0.308700 0.924300 0.224500
vn 0.189000 0.966700 0.172400
vn 0.004500 0.986500 0.163900
vn 0.754400 0.654500 0.050100
vn -0.128000 -0.991100 -0.037700
vn 0.208000 0.468700 -0.858500
vn -0.881000 0.472800 0.017100
vn -0.754900 0.647100 -0.107100
vn 0.205300 -0.574800 -0.792100
vn 0.220500 -0.973700 -0.057000
vn -0.990800 -0.133700 0.021500
vn 0.061200 -0.866500 0.495400
vn -0.417800 -0.847200 0.328000
vn -0.085700 0.819400 0.566700
vn 0.990100 0.134100 -0.041300
vn -0.045200 0.970500 0.236800
usemtl carpaint
s off
f 10/1/1 1/1/1 2/1/1
f 10/1/2 2/1/2 6/1/2
f 2/1/3 1/1/3 16/1/3
f 10/1/4 9/1/4 1/1/4
f 10/1/5 3/1/5 9/1/5
f 1/1/6 9/1/6 3/1/6
f 10/1/7 6/1/7 4/1/7
f 30/1/8 16/1/8 29/1/8
f 29/1/9 31/1/9 30/1/9
f 17/1/10 18/1/10 30/1/10
f 16/1/11 30/1/11 18/1/11
f 2/1/12 28/1/12 25/1/12
f 27/1/13 25/1/13 28/1/13
f 28/1/14 2/1/14 27/1/14
f 16/1/15 18/1/15 34/1/15
f 27/1/16 2/1/16 16/1/16
l 23 24
l 25 26
l 34 35
l 21 22
l 13 12
l 33 25
l 29 24
l 27 21
l 20 17
l 14 15
l 31 32
l 4 5
l 6 14
l 18 19
l 11 3
l 10 13
l 7 8
l 7 1
o windows
v -0.659786 1.113145 0.583693
v 0.495726 0.853765 1.061405
v 0.744190 0.986748 -0.543146
v 0.633263 1.183593 -0.609363
v 0.699134 1.000408 -1.045421
v 0.742920 0.979543 -0.532400
v -0.608882 1.234731 -0.577654
v -0.741149 0.987326 0.629617
v -0.634659 1.184419 -0.607099
v -0.700019 0.998960 -1.047106
v 0.374065 0.983541 -1.703193
v -0.575597 1.044345 -1.393717
v 0.512772 1.289621 0.296594
v 0.617523 1.221366 -0.570278
v -0.744092 0.980029 -0.533343
v -0.742413 0.978983 -0.540780
v 0.461004 1.271664 -0.833899
v 0.701282 1.079828 0.507786
vt 1.000000 1.000000
vt 0.291964 1.000000
vt 0.995412 1.000000
vt 0.998700 1.000000
vt -0.017233 1.000000
vt 0.999447 1.000000
vt 0.995014 1.000000
vn -0.009600 0.868900 0.494900
vn 0.888300 0.459200 -0.008700
vn 0.878600 0.472900 -0.066000
vn -0.891600 0.449300 -0.056900
vn -0.883300 0.468800 -0.000700
vn -0.040500 0.949600 -0.310700
vn 0.009600 -0.868900 -0.494900
vn -0.888300 -0.459200 0.008700
vn -0.878600 -0.472900 0.066000
vn 0.883300 -0.468800 0.000700
vn 0.891600 -0.449300 0.056900
vn 0.040500 -0.949600 0.310700
usemtl windowglass
s off
f 48/2/17 36/2/17 37/2/17
f 53/3/18 41/4/18 49/5/18
f 40/2/19 39/2/19 38/2/19
f 44/2/20 45/2/20 51/2/20
f 43/6/21 42/7/21 50/8/21
f 47/2/22 52/2/22 46/2/22
f 37/2/23 36/2/23 48/2/23
f 41/4/24 53/3/24 49/5/24
f 40/2/25 38/2/25 39/2/25
f 42/7/26 43/6/26 50/8/26
f 51/2/27 45/2/27 44/2/27
f 46/2/28 52/2/28 47/2/28
